<svg width="50" height="50" viewBox="0 0 50 50" fill="none" xmlns="http://www.w3.org/2000/svg">
<path fill-rule="evenodd" clip-rule="evenodd" d="M50 25C50 38.8071 38.8071 50 25 50C11.1929 50 0 38.8071 0 25C0 11.1929 11.1929 0 25 0C38.8071 0 50 11.1929 50 25ZM31.364 14.3934C32.5355 13.2218 34.435 13.2218 35.6066 14.3934C36.7782 15.565 36.7782 17.4645 35.6066 18.636L29.2427 25L35.6066 31.364C36.7782 32.5355 36.7782 34.435 35.6066 35.6066C34.4351 36.7782 32.5356 36.7782 31.364 35.6066L25 29.2426L18.6361 35.6066C17.4645 36.7782 15.565 36.7782 14.3934 35.6066C13.2218 34.435 13.2218 32.5355 14.3934 31.3639L20.7574 25L14.3934 18.636C13.2219 17.4645 13.2218 15.565 14.3934 14.3934C15.565 13.2218 17.4645 13.2218 18.6361 14.3934L25 20.7573L31.364 14.3934Z" fill="white"/>
</svg>
