<svg width="190" height="190" viewBox="0 0 190 190" fill="none" xmlns="http://www.w3.org/2000/svg">
<path d="M95 0C119.163 0 142.418 9.2073 160.032 25.748C177.646 42.2887 188.295 64.9196 189.813 89.0349C191.33 113.15 183.601 136.937 168.199 155.555C152.797 174.173 130.879 186.222 106.907 189.251L100.953 142.125C112.94 140.611 123.898 134.587 131.599 125.278C139.3 115.969 143.165 104.075 142.406 92.0175C141.648 79.9598 136.323 68.6443 127.516 60.374C118.709 52.1036 107.081 47.5 95 47.5L95 0Z" fill="#0E79B2"/>
<path d="M95 0C82.022 0 69.1816 2.65912 57.271 7.81331C45.3603 12.9675 34.632 20.5075 25.748 29.968C16.8639 39.4286 10.0125 50.6091 5.61633 62.8199C1.22018 75.0307 -0.627435 88.0127 0.187461 100.965C1.00236 113.918 4.46248 126.566 10.3544 138.129C16.2463 149.693 24.445 159.926 34.4447 168.199C44.4444 176.471 56.0331 182.607 68.4958 186.228C80.9585 189.849 94.031 190.877 106.907 189.251L100.953 142.125C94.5155 142.939 87.9793 142.424 81.7479 140.614C75.5166 138.804 69.7222 135.736 64.7224 131.599C59.7225 127.463 55.6231 122.346 52.6772 116.565C49.7312 110.783 48.0012 104.459 47.5937 97.9825C47.1863 91.5063 48.1101 85.0153 50.3082 78.9099C52.5062 72.8046 55.932 67.2143 60.374 62.484C64.816 57.7537 70.1802 53.9838 76.1355 51.4067C82.0908 48.8296 88.511 47.5 95 47.5V0Z" fill="#EF476F"/>
</svg>
